<svg width="40" height="30" viewBox="0 0 40 30" fill="none" xmlns="http://www.w3.org/2000/svg">
<path d="M33.1761 2.53372C37.5953 9.07152 39.7778 16.446 38.962 24.9357C38.9585 24.9716 38.94 25.0046 38.9106 25.0262C35.564 27.4988 32.3215 28.9994 29.1246 29.9945C29.0997 30.0021 29.0731 30.0017 29.0484 29.9933C29.0238 29.9849 29.0023 29.969 28.9871 29.9478C28.2486 28.9138 27.5775 27.8236 26.9895 26.6789C26.9558 26.6114 26.9866 26.5302 27.0561 26.5037C28.1219 26.0996 29.1354 25.6153 30.1102 25.042C30.187 24.9967 30.1919 24.886 30.1209 24.8328C29.914 24.6783 29.7091 24.5158 29.513 24.3534C29.4763 24.3234 29.4269 24.3175 29.3853 24.3377C23.0564 27.2783 16.1235 27.2783 9.71984 24.3377C9.67826 24.319 9.62886 24.3254 9.59315 24.3549C9.3975 24.5173 9.19207 24.6783 8.98712 24.8328C8.9162 24.886 8.92207 24.9967 8.99935 25.042C9.97419 25.6045 10.9877 26.0996 12.052 26.5056C12.121 26.5322 12.1537 26.6114 12.1195 26.6789C11.5443 27.8251 10.8732 28.9152 10.1209 29.9492C10.0882 29.9911 10.0344 30.0103 9.98348 29.9945C6.80169 28.9994 3.55925 27.4988 0.212626 25.0262C0.184746 25.0046 0.164691 24.9701 0.161757 24.9342C-0.52009 17.5907 0.869527 10.1552 5.94229 2.53225C5.95452 2.51207 5.97311 2.49632 5.99463 2.48697C8.49066 1.33434 11.1647 0.486356 13.9596 0.00207469C14.0105 -0.0057998 14.0614 0.0178237 14.0878 0.063102C14.4331 0.678296 14.8278 1.46722 15.0949 2.11195C18.0409 1.65916 21.0329 1.65916 24.0406 2.11195C24.3076 1.481 24.6887 0.678296 25.0325 0.063102C25.0448 0.0406399 25.0638 0.0226445 25.0868 0.0116849C25.1098 0.000725298 25.1357 -0.00263817 25.1607 0.00207469C27.957 0.487832 30.6311 1.33582 33.1252 2.48697C33.1472 2.49632 33.1653 2.51207 33.1761 2.53372ZM16.5926 16.4962C16.6234 14.3253 15.0504 12.5289 13.0758 12.5289C11.1173 12.5289 9.55941 14.3095 9.55941 16.4962C9.55941 18.6823 11.1481 20.4629 13.0758 20.4629C15.0347 20.4629 16.5926 18.6823 16.5926 16.4962ZM29.5946 16.4962C29.6255 14.3253 28.0524 12.5289 26.0783 12.5289C24.1193 12.5289 22.5615 14.3095 22.5615 16.4962C22.5615 18.6823 24.1501 20.4629 26.0783 20.4629C28.0524 20.4629 29.5946 18.6823 29.5946 16.4962Z" fill="white"/>
</svg>
