<svg width="30" height="30" viewBox="0 0 30 30" fill="none" xmlns="http://www.w3.org/2000/svg">
<path fill-rule="evenodd" clip-rule="evenodd" d="M30 15C30 23.2842 23.2842 30 15 30C6.71574 30 0 23.2842 0 15C0 6.71574 6.71574 0 15 0C23.2842 0 30 6.71574 30 15ZM16.4374 10.3973C13.8605 11.5104 6.43025 14.6715 6.43025 14.6715C4.66934 15.3838 5.70007 16.0517 5.70007 16.0517C5.70007 16.0517 7.20329 16.586 8.49181 16.9866C9.78028 17.3873 10.4675 16.9421 10.4675 16.9421C10.4675 16.9421 13.4739 14.8941 16.5233 12.7125C18.6708 11.1987 18.1554 12.4453 17.64 12.9796C16.5233 14.1372 14.6765 15.9626 13.1303 17.4319C12.4432 18.0552 12.7867 18.5895 13.0874 18.8566C13.9618 19.6236 16.0212 21.0184 16.9562 21.6517C17.2152 21.8272 17.388 21.9442 17.4253 21.9732C17.64 22.1513 18.8426 22.9527 19.5727 22.7746C20.3029 22.5965 20.3887 21.5724 20.3887 21.5724C20.3887 21.5724 20.9471 17.9216 21.4625 14.5824C21.558 13.9268 21.6534 13.2849 21.7424 12.6864C21.9738 11.1307 22.1616 9.86795 22.1926 9.4178C22.3215 7.90406 20.7753 8.52734 20.7753 8.52734C20.7753 8.52734 17.4253 9.9521 16.4374 10.3973Z" fill="white"/>
</svg>
