<svg width="37" height="30" viewBox="0 0 37 30" fill="none" xmlns="http://www.w3.org/2000/svg">
<path d="M36.2314 3.60383C35.0542 4.11047 33.8165 4.46326 32.5491 4.65349C33.1417 4.55191 34.0136 3.48532 34.3606 3.0536C34.8879 2.40239 35.2897 1.65899 35.5457 0.861151C35.5457 0.801896 35.605 0.717245 35.5457 0.67492C35.5159 0.65862 35.4824 0.650078 35.4484 0.650078C35.4144 0.650078 35.3809 0.65862 35.351 0.67492C33.9748 1.4202 32.5101 1.98902 30.9915 2.36793C30.9386 2.3841 30.8823 2.38555 30.8286 2.37213C30.7749 2.3587 30.7259 2.33092 30.6868 2.29174C30.5686 2.151 30.4413 2.01809 30.3059 1.89389C29.6865 1.33896 28.9838 0.884776 28.2235 0.547944C27.1971 0.126873 26.0885 -0.0554831 24.9813 0.0146462C23.9071 0.0824917 22.8582 0.370633 21.9001 0.861151C20.9565 1.3783 20.1273 2.08086 19.4621 2.92662C18.7625 3.79713 18.2574 4.80737 17.9808 5.88939C17.7527 6.91861 17.7268 7.98236 17.9046 9.02146C17.9046 9.19922 17.9046 9.22462 17.7522 9.19922C11.7166 8.31039 6.76457 6.16874 2.71827 1.57222C2.54051 1.36905 2.44739 1.36905 2.30349 1.57222C0.542757 4.24717 1.39773 8.47969 3.59864 10.5706C3.89492 10.8499 4.19966 11.1208 4.52133 11.3747C3.51222 11.3031 2.52777 11.0296 1.62628 10.5706C1.45698 10.4605 1.36387 10.5198 1.3554 10.7229C1.3314 11.0046 1.3314 11.2878 1.3554 11.5694C1.53203 12.9193 2.06399 14.198 2.89689 15.2748C3.72978 16.3516 4.83373 17.1879 6.09583 17.6981C6.4035 17.8299 6.72409 17.9292 7.05238 17.9944C6.1182 18.1783 5.16008 18.2069 4.21659 18.0791C4.01343 18.0367 3.93724 18.1468 4.01343 18.3415C5.25779 21.7275 7.95814 22.7602 9.93896 23.3359C10.2098 23.3782 10.4807 23.3782 10.7855 23.4459C10.7855 23.4459 10.7855 23.4459 10.7347 23.4967C10.1506 24.5633 7.78884 25.2828 6.70531 25.6553C4.7276 26.3657 2.61899 26.6372 0.525827 26.451C0.19569 26.4002 0.119504 26.4087 0.0348539 26.451C-0.0497966 26.4933 0.0348539 26.5864 0.127969 26.6711C0.551222 26.9504 0.974474 27.1959 1.41466 27.4329C2.72508 28.1477 4.11047 28.7155 5.5456 29.1259C12.9779 31.1745 21.3414 29.6677 26.9198 24.1231C31.3047 19.7721 32.8454 13.7703 32.8454 7.76016C32.8454 7.53161 33.1247 7.39617 33.2856 7.27766C34.3949 6.41329 35.3729 5.39248 36.1891 4.24717C36.3304 4.07645 36.4029 3.85907 36.3922 3.63769C36.3922 3.51071 36.3922 3.53611 36.2314 3.60383Z" fill="white"/>
</svg>
