<svg width="185" height="40" viewBox="0 0 185 40" fill="none" xmlns="http://www.w3.org/2000/svg">
<path d="M50.9137 11.0426C49.8174 11.0426 49.2981 11.5565 49.2981 12.5843C49.2981 12.8698 49.3558 13.2694 49.4135 13.7833C49.4712 14.3543 49.5289 14.754 49.5866 14.9824C49.6443 16.2386 49.702 18.7509 49.702 22.4052C49.702 23.3188 49.702 23.8326 49.702 24.1181C46.2976 21.0919 42.951 17.1521 39.5467 12.3559C38.8543 11.3852 38.2773 10.9284 37.7003 10.9284C37.181 10.9284 36.7771 11.0997 36.3732 11.4423C35.9693 11.7849 35.7962 12.1846 35.7962 12.6414C35.7962 13.0981 35.8539 13.7262 35.9116 14.6398C36.027 15.4963 36.0847 16.1815 36.0847 16.6382C36.0847 17.095 36.0847 17.8373 36.1424 18.7509C36.2001 19.6645 36.2001 20.4067 36.2001 20.8635C36.2001 21.3203 36.2001 21.9484 36.1424 22.862C36.0847 23.7184 36.0847 24.4036 36.0847 24.8604C36.0847 25.1459 36.0847 25.6027 36.027 26.2308C35.9693 26.8589 35.9693 27.2585 35.9693 27.6011C35.9693 28.0008 36.1424 28.4005 36.4309 28.686C36.7771 29.0286 37.181 29.1999 37.758 29.1999C38.7389 29.0857 39.2582 28.0008 39.2582 25.774C39.2582 25.203 39.2582 24.2894 39.2005 23.1475C39.2005 21.9484 39.1428 21.0919 39.1428 20.5209C39.1428 20.0641 39.1428 18.9222 39.2005 16.9808C42.8356 21.6058 46.0668 25.2601 48.9519 27.8295C49.5866 28.4005 50.2213 28.686 50.7406 28.686C51.6638 28.686 52.2408 28.2292 52.3562 27.2585C52.4716 26.4592 52.5293 25.8882 52.5293 25.4885C52.5293 24.5749 52.5293 22.2339 52.587 18.4654C52.587 17.3805 52.587 16.8095 52.587 16.6953C52.7601 12.9268 52.1254 11.0426 50.9137 11.0426Z" fill="white"/>
<path d="M65.1656 17.8373C65.1656 17.4377 65.0502 17.0951 64.704 16.8096C64.4155 16.5241 64.0116 16.4099 63.55 16.4099C62.6268 16.4099 62.1075 16.8667 61.9921 17.7231C61.8767 18.808 61.7613 20.1213 61.7613 21.6629C61.7613 22.0626 61.7613 22.6907 61.7613 23.5472C61.7613 24.2895 61.7613 24.9175 61.7613 25.4885C60.7804 25.7169 59.8572 25.8311 58.9917 25.8311C58.8186 25.8311 58.6455 25.8311 58.4724 25.774C58.2993 25.7169 58.1262 25.6598 57.9531 25.6027C57.8377 25.0888 57.7223 24.4608 57.6069 23.6614C57.4915 22.862 57.4915 21.9484 57.4915 20.9207C57.4915 20.5781 57.5492 20.0071 57.6646 19.3219C57.78 18.6367 57.8377 18.1228 57.8377 17.7802C57.8377 17.3806 57.6646 17.038 57.3761 16.7525C57.0876 16.467 56.6837 16.3528 56.2798 16.3528C55.4143 16.3528 54.895 16.7525 54.7796 17.6089C54.5488 18.8651 54.4333 19.95 54.4333 20.9207C54.4333 22.3481 54.6064 24.004 54.895 25.8882C55.0681 26.8589 55.5297 27.6012 56.3375 28.115C57.0876 28.5718 57.9531 28.8002 59.0494 28.8002C60.088 28.8002 61.0689 28.6289 62.0498 28.2863C62.3383 28.8573 62.7999 29.1428 63.4346 29.1428C63.8962 29.1428 64.2424 29.0286 64.5309 28.7431C64.8194 28.4576 64.9925 28.115 64.9925 27.7154C64.9925 27.5441 64.9925 27.3157 64.9348 27.0302C64.9348 26.7447 64.8771 26.5163 64.8771 26.345C64.8771 25.8311 64.8771 25.0888 64.8771 24.1182C64.8771 23.0904 64.8771 22.3481 64.8771 21.8913C64.9925 21.9484 65.0502 20.6923 65.1656 17.8373Z" fill="white"/>
<path d="M76.7057 17.8373C76.4172 17.4947 75.9556 17.2092 75.494 17.0379C74.9747 16.8666 74.3977 16.8095 73.6476 16.8095C71.455 16.8095 69.724 17.4376 68.3969 18.7509C67.1275 20.007 66.5505 21.6058 66.5505 23.6613C66.5505 25.1459 67.0121 26.402 67.9353 27.3727C68.8585 28.3434 70.0702 28.8002 71.5704 28.8002C72.1474 28.8002 72.6667 28.686 73.1283 28.5147C73.5899 28.3434 74.0515 28.0579 74.3977 27.6582C74.2823 29.0857 73.9938 30.1705 73.4745 30.7986C72.9552 31.4838 72.0897 31.8264 70.9934 31.8264C70.5318 31.8264 69.9548 31.7693 69.3201 31.6551C68.6854 31.5409 68.2238 31.4838 67.8776 31.4838C67.4737 31.4838 67.1275 31.598 66.839 31.8835C66.5505 32.1119 66.4351 32.4545 66.4351 32.8542C66.4351 33.9961 67.8776 34.5671 70.8203 34.5671C73.3014 34.5671 75.0324 33.8248 76.0133 32.3974C76.7634 31.3125 77.1673 29.5995 77.225 27.2014C77.2827 25.2601 77.4558 23.4329 77.802 21.6629C77.9751 20.8064 78.0328 20.1212 78.0328 19.6073C78.1482 18.5225 77.6289 17.9515 76.7057 17.8373ZM74.5131 23.0903C74.4554 23.7184 74.1092 24.4036 73.5322 25.0888C72.8975 25.774 72.2628 26.1736 71.6858 26.1736C70.9934 26.1736 70.5318 25.9452 70.1856 25.4885C69.8394 25.0317 69.6663 24.4036 69.6663 23.49C69.6663 22.291 69.9548 21.3203 70.5895 20.578C71.2819 19.7786 72.2628 19.3218 73.5322 19.3218C73.763 19.3218 73.9938 19.3789 74.2246 19.436C74.4554 19.4931 74.7439 19.6073 74.9747 19.7786C74.8016 21.2632 74.6285 22.4051 74.5131 23.0903Z" fill="white"/>
<path d="M89.2843 17.8373C88.9958 17.4947 88.5342 17.2092 88.0726 17.0379C87.5533 16.8666 86.9763 16.8095 86.2262 16.8095C84.0336 16.8095 82.3026 17.4376 80.9755 18.7509C79.7061 20.007 79.1291 21.6058 79.1291 23.6613C79.1291 25.1459 79.5907 26.402 80.5139 27.3727C81.4371 28.3434 82.6488 28.8002 84.149 28.8002C84.726 28.8002 85.2453 28.686 85.7069 28.5147C86.1685 28.3434 86.6301 28.0579 86.9763 27.6582C86.8609 29.0857 86.5724 30.1705 86.0531 30.7986C85.5338 31.4838 84.6683 31.8264 83.572 31.8264C83.1104 31.8264 82.5334 31.7693 81.8987 31.6551C81.264 31.5409 80.8024 31.4838 80.4562 31.4838C80.0523 31.4838 79.7061 31.598 79.4176 31.8835C79.1291 32.1119 79.0137 32.4545 79.0137 32.8542C79.0137 33.9961 80.4562 34.5671 83.3989 34.5671C85.88 34.5671 87.611 33.8248 88.5919 32.3974C89.342 31.3125 89.7459 29.5995 89.8036 27.2014C89.8613 25.2601 90.0344 23.4329 90.3806 21.6629C90.5537 20.8064 90.6114 20.1212 90.6114 19.6073C90.7268 18.5225 90.2652 17.9515 89.2843 17.8373ZM87.0917 23.0903C87.034 23.7184 86.6878 24.4036 86.1108 25.0888C85.4761 25.774 84.8414 26.1736 84.2644 26.1736C83.572 26.1736 83.1104 25.9452 82.7642 25.4885C82.418 25.0317 82.2449 24.4036 82.2449 23.49C82.2449 22.291 82.5334 21.3203 83.1681 20.578C83.8605 19.7786 84.8414 19.3218 86.1108 19.3218C86.3416 19.3218 86.5724 19.3789 86.8032 19.436C87.034 19.4931 87.3225 19.6073 87.5533 19.7786C87.4379 21.2632 87.2648 22.4051 87.0917 23.0903Z" fill="white"/>
<path d="M102.382 24.8604C102.036 24.8604 101.517 25.0317 100.882 25.4314C100.19 25.8311 99.3241 26.0595 98.3432 26.0595C97.7085 26.0595 97.0738 25.9453 96.6122 25.774C96.0929 25.6027 95.689 25.3172 95.2851 24.9175L99.0933 23.2617C100.363 22.6907 101.228 22.291 101.632 22.0055C102.555 21.3774 103.017 20.6351 103.017 19.8358C103.017 18.6938 102.44 17.8373 101.344 17.2663C100.478 16.8666 99.3818 16.6382 98.1124 16.6382C96.2083 16.6382 94.7081 17.3805 93.6118 18.808C92.6309 20.1212 92.1116 21.72 92.1116 23.5471C92.1116 25.2601 92.7463 26.5734 94.0157 27.4869C95.1697 28.3434 96.6122 28.7431 98.4009 28.7431C99.5549 28.7431 100.709 28.5147 101.748 28.0579C103.017 27.544 103.652 26.8589 103.652 26.0024C103.536 25.203 103.132 24.8604 102.382 24.8604ZM96.2083 19.95C96.7276 19.4932 97.3046 19.2648 97.997 19.2648C98.8048 19.2648 99.4395 19.379 99.9588 19.6645C99.3818 20.0641 98.574 20.4638 97.5354 20.9206C96.6699 21.2632 95.8621 21.6629 94.9966 22.0055C95.3428 21.0919 95.7467 20.4067 96.2083 19.95Z" fill="white"/>
<path d="M114.499 16.4098C114.211 16.2956 113.576 16.2385 112.711 16.2385C112.422 16.2385 112.018 16.2956 111.557 16.3527V15.4391C111.557 13.612 110.98 12.6413 109.883 12.6413C109.422 12.6413 109.076 12.7555 108.787 13.041C108.499 13.3265 108.325 13.6691 108.325 14.0688C108.325 14.3542 108.325 14.6968 108.383 15.1536C108.441 15.7246 108.441 16.1243 108.441 16.3527C107.46 16.2385 106.825 16.2385 106.537 16.2385C106.075 16.2385 105.729 16.4098 105.44 16.6953C105.152 16.9808 105.036 17.3234 105.036 17.7802C105.036 18.6366 105.498 19.0934 106.421 19.2076C107.345 19.3218 108.037 19.3789 108.556 19.3789C108.672 22.348 108.787 24.2323 108.787 25.1458C108.787 25.4313 108.787 25.831 108.729 26.3449C108.729 26.8588 108.672 27.2585 108.672 27.544C108.672 27.9437 108.845 28.2863 109.191 28.5717C109.479 28.8001 109.826 28.9714 110.287 28.9714C111.384 28.9714 111.903 28.115 111.903 26.402C111.903 26.2307 111.903 26.0023 111.903 25.7739C111.903 25.4884 111.903 25.3171 111.903 25.26C111.903 24.3465 111.845 22.4051 111.672 19.3789C112.076 19.3218 112.422 19.2647 112.768 19.2647C112.941 19.2647 113.115 19.2647 113.345 19.2647C113.576 19.2647 113.749 19.2647 113.922 19.2647C114.384 19.2647 114.73 19.1505 115.019 18.865C115.307 18.5795 115.48 18.2369 115.48 17.7802C115.423 17.0379 115.076 16.5811 114.499 16.4098Z" fill="white"/>
<path d="M147.561 10.9855C146.984 10.9855 146.465 11.271 146.119 11.7849C145.773 12.2417 145.542 12.9269 145.311 13.7834C145.023 14.9253 144.792 15.6105 144.734 15.8389C143.407 19.3219 142.311 21.9484 141.503 23.7756C140.695 20.4068 140.234 18.0657 140.06 16.8096C139.887 15.6105 139.83 14.8682 139.772 14.5827C139.599 13.6121 139.426 12.9269 139.31 12.5272C138.964 11.7278 138.445 11.3281 137.695 11.3281C136.887 11.3281 136.137 12.1275 135.387 13.7834C135.098 14.4685 134.637 15.6105 134.175 17.2093C133.54 19.1506 132.963 20.8636 132.329 22.3481C131.405 18.3512 130.598 15.2679 129.848 13.2124C129.617 12.5272 129.386 12.0704 129.213 11.7849C128.867 11.3281 128.405 11.0997 127.828 11.0997C127.366 11.0997 127.02 11.2139 126.732 11.4423C126.386 11.7278 126.212 12.0704 126.212 12.5272C126.212 12.6985 126.27 12.9269 126.328 13.0982C127.482 16.3528 128.347 18.8651 128.809 20.6352C129.386 22.9191 129.79 24.6891 130.021 25.8311L130.367 27.1444C130.367 27.6583 130.598 28.115 131.002 28.4005C131.348 28.686 131.809 28.8002 132.386 28.8002C132.848 28.8002 133.194 28.686 133.598 28.4576C134.002 28.1721 134.233 27.7725 134.233 27.3157C134.233 27.1444 134.175 26.9731 134.117 26.8018C134.406 25.774 134.925 24.4037 135.791 22.5765C136.368 21.3774 136.887 20.0642 137.349 18.5796C137.926 21.7771 138.387 24.1753 138.733 25.7169C138.849 26.2308 139.022 26.9731 139.368 27.8296C139.426 28.2863 139.599 28.6289 140.003 28.9144C140.349 29.1428 140.753 29.257 141.157 29.257C141.849 29.257 142.426 28.9715 142.772 28.3434C143.061 27.8867 143.349 27.2586 143.638 26.4592C144.042 25.4314 144.734 23.8327 145.657 21.72C146.581 19.6074 147.273 18.0657 147.677 16.9809C147.965 16.1244 148.196 15.4963 148.312 15.0395C148.485 14.5827 148.658 14.2401 148.773 13.8976C149.062 13.2695 149.177 12.8698 149.177 12.6985C149.177 12.2417 149.004 11.8991 148.715 11.6136C148.427 11.0997 148.023 10.9855 147.561 10.9855Z" fill="white"/>
<path d="M161.41 24.9746C161.179 24.3465 161.121 23.3188 161.121 21.9484C161.121 21.3774 161.121 20.8064 161.179 20.4067C161.236 19.95 161.294 19.6074 161.352 19.3219C161.525 19.1506 161.583 18.8651 161.583 18.6367C161.583 18.0086 161.006 17.4376 159.909 16.9808C158.986 16.5811 158.121 16.4099 157.428 16.4099C155.582 16.4099 153.966 17.0379 152.639 18.2941C151.312 19.5503 150.62 21.0919 150.62 22.862C150.62 24.7462 151.081 26.1737 151.947 27.1443C152.812 28.115 154.197 28.5718 155.986 28.5718C156.332 28.5718 156.794 28.5147 157.313 28.3434C157.832 28.1721 158.467 27.9437 159.159 27.6011C159.909 28.2863 160.429 28.5718 160.775 28.5718C161.179 28.5718 161.525 28.4576 161.813 28.1721C162.102 27.8866 162.275 27.6011 162.275 27.2014C162.275 27.0872 162.102 26.7447 161.813 26.1166C161.64 25.4314 161.467 25.0317 161.41 24.9746ZM157.255 25.7169C156.851 25.8882 156.39 25.9453 155.928 25.9453C155.236 25.9453 154.659 25.7169 154.312 25.203C153.966 24.6891 153.793 23.9468 153.793 22.9762C153.793 21.9484 154.197 21.0348 154.947 20.2354C155.697 19.4361 156.62 19.0364 157.601 19.0364C157.659 19.0364 157.774 19.0364 157.89 19.0935C158.005 19.1506 158.121 19.2077 158.294 19.2648C158.236 19.6645 158.178 20.007 158.121 20.2925C158.063 20.578 158.063 20.8635 158.063 21.0919C158.063 21.9484 158.178 23.2617 158.409 25.0317C158.063 25.3172 157.659 25.5456 157.255 25.7169Z" fill="white"/>
<path d="M171.507 16.2386C169.892 16.2386 168.391 16.7525 167.064 17.7231C166.891 16.8667 166.43 16.467 165.564 16.467C165.102 16.467 164.756 16.5812 164.468 16.8667C164.237 17.1522 164.064 17.4948 164.064 17.8944C164.064 18.1228 164.064 18.4654 164.064 18.9222C164.064 19.379 164.064 19.7216 164.064 19.95V27.2586C164.064 27.6583 164.179 28.0009 164.41 28.2863C164.641 28.5718 165.045 28.7431 165.506 28.7431C165.968 28.7431 166.314 28.6289 166.603 28.3434C166.891 28.058 167.064 27.7154 167.064 27.3157V21.72C167.814 20.2926 169.026 19.4361 170.699 19.1506L170.757 20.2926C170.757 21.2632 171.219 21.72 172.2 21.72C173.18 21.72 173.7 21.149 173.757 20.0071C173.757 19.8929 173.757 19.6645 173.757 19.2648C173.757 17.2093 173.007 16.2386 171.507 16.2386Z" fill="white"/>
<path d="M183.393 22.291C182.874 21.8913 181.836 21.3774 180.393 20.6922C179.297 20.1783 178.777 19.8358 178.777 19.5503C178.777 19.0364 179.701 18.808 181.489 18.808C181.778 18.808 182.124 18.808 182.413 18.8651C182.586 19.4932 182.99 19.7787 183.74 19.7787C184.49 19.7787 184.836 19.0935 184.836 17.7802C184.836 17.095 184.605 16.5811 184.086 16.3528C183.682 16.1815 183.105 16.0673 182.355 16.0673C180.451 16.0673 179.008 16.2386 178.085 16.524C176.469 17.0379 175.662 18.0657 175.662 19.5503C175.662 20.578 176.181 21.4916 177.22 22.2339C177.681 22.5194 178.662 23.0333 180.162 23.7184C181.201 24.1752 181.72 24.5749 181.72 24.9746C181.72 25.6027 180.97 25.8882 179.412 25.8882C179.066 25.8882 178.547 25.774 177.912 25.5456C177.277 25.3172 176.758 25.203 176.412 25.203C175.546 25.203 175.085 25.6027 175.085 26.345C175.085 27.1443 175.662 27.7724 176.758 28.1721C177.566 28.4576 178.489 28.6289 179.47 28.6289C180.855 28.6289 182.066 28.3434 183.047 27.8295C184.259 27.1443 184.836 26.1737 184.836 24.9175C185.009 23.9468 184.432 23.0904 183.393 22.291Z" fill="white"/>
<path d="M18.8843 5.31329C16.9299 2.98171 14.3299 1.79799 11.1024 1.79799C9.38107 1.79799 7.8211 2.17463 6.44043 2.90997C6.20734 3.03552 5.92044 2.94584 5.79493 2.73062C4.41427 0.3273 -0.140132 -0.228691 0.00331358 0.0762073C0.182621 0.452847 0.989502 1.86973 0.989502 4.82904C0.989502 8.90033 0.989502 12.2901 0.989502 12.2901V22.5132C0.989502 23.8404 2.06534 24.9165 3.39222 24.9165H7.08594C8.41281 24.9165 9.48865 23.8404 9.48865 22.5132V12.1287C9.48865 10.8194 10.0266 10.1737 11.0845 10.1737C12.1603 10.1737 12.6982 10.8194 12.6982 12.1287V19.6973V26.5127C12.6982 28.3959 12.2858 29.8307 11.4431 30.8351C10.6183 31.8395 9.43486 32.3417 7.91075 32.3417C7.67765 32.3417 7.46248 32.3237 7.22939 32.3058C5.79493 32.1444 4.55771 33.2564 4.55771 34.6912V37.3456C4.55771 38.4576 5.3108 39.4261 6.40457 39.6772C7.31904 39.8924 8.12592 40 8.80729 40C12.4831 40 15.4775 38.7445 17.7547 36.2157C20.0498 33.6868 21.1974 30.4226 21.1974 26.3692V24.9165V20.63V12.9716C21.1795 9.70742 20.4085 7.16062 18.8843 5.31329Z" fill="white"/>
</svg>
